<svg xmlns="http://www.w3.org/2000/svg" viewBox="0 0 512 512" fill="none">
  <defs>
    <linearGradient id="jira-blue-bottom" x1="49%" y1="18%" x2="24%" y2="78%">
      <stop offset="18%" stop-color="#0052CC"/>
      <stop offset="100%" stop-color="#2684FF"/>
    </linearGradient>
    <linearGradient id="jira-blue-top" x1="51%" y1="82%" x2="76%" y2="22%">
      <stop offset="18%" stop-color="#0052CC"/>
      <stop offset="100%" stop-color="#2684FF"/>
    </linearGradient>
  </defs>
  <path d="M256.012 14.262C256.012 14.262 120.904 141.15 114.544 147.358C86.648 174.714 86.648 219.77 114.544 247.126L220.504 350.238C225.136 354.758 232.608 354.758 237.24 350.238L256.012 332.014L164.572 243.178C151.108 230.082 151.108 208.886 164.572 195.79L256.012 106.954V14.262Z" fill="url(#jira-blue-bottom)"/>
  <path d="M256.012 106.954L347.452 195.79C360.916 208.886 360.916 230.082 347.452 243.178L256.012 332.014V424.738C256.012 424.738 391.12 297.85 397.48 291.642C425.376 264.286 425.376 219.23 397.48 191.874L291.52 88.73C286.888 84.21 279.416 84.21 274.784 88.73L256.012 106.954Z" fill="url(#jira-blue-top)"/>
</svg>
